# xmcd
#
# Track frame offsets: 
#        150
#        21582
#        42315
#        59352
#        78260
#        100250
#        117582
#        144210
#        159122
#        183295
#        213125
#        241857
#        261797
#        292567
#        308262
#
# Disc length: 4361 seconds
#
# Revision: 13
# Processed by: cddbd v1.5.2PL0 Copyright (c) Steve Scherf et al.
# Submitted via: ExactAudioCopy v1.0b3
#
DISCID=b811070f
DTITLE=The Cure - Join the Dots
DYEAR=2004
DGENRE=Rock
TTITLE0=This Twilight Garden
TTITLE1=Play
TTITLE2=Halo
TTITLE3=Scared as You
TTITLE4=The Big Hand
TTITLE5=A Foolish Arrangement
TTITLE6=Doing the Unstuck (12'' Version)
TTITLE7=Purple Haze (Virgin Radio Version)
TTITLE8=Purple Haze
TTITLE9=Burn
TTITLE10=Young Americans
TTITLE11=Dredd Song
TTITLE12=It Used to Be Me
TTITLE13=Ocean
TTITLE14=Adonais
EXTD=2004 Rhino - Elektra/Asylum Records, Inc.
EXTT0=
EXTT1=
EXTT2=
EXTT3=
EXTT4=
EXTT5=
EXTT6=
EXTT7=
EXTT8=
EXTT9=
EXTT10=
EXTT11=
EXTT12=
EXTT13=
EXTT14=
PLAYORDER=
